<mxfile host="app.diagrams.net" agent="Mozilla/5.0 (Windows NT 10.0; Win64; x64) AppleWebKit/537.36 (KHTML, like Gecko) Chrome/138.0.0.0 Safari/537.36 Edg/138.0.0.0" version="26.3.0">
  <diagram name="Page-1" id="e7e014a7-5840-1c2e-5031-d8a46d1fe8dd">
    <mxGraphModel dx="1418" dy="756" grid="1" gridSize="10" guides="1" tooltips="1" connect="1" arrows="1" fold="1" page="1" pageScale="1" pageWidth="1169" pageHeight="826" background="none" math="0" shadow="0">
      <root>
        <mxCell id="0" />
        <mxCell id="1" parent="0" />
        <mxCell id="3" value="Production system" style="swimlane;whiteSpace=wrap;fontSize=12;startSize=42;" parent="1" vertex="1">
          <mxGeometry x="300" y="100" width="520" height="620" as="geometry">
            <mxRectangle x="350" y="128" width="100" height="40" as="alternateBounds" />
          </mxGeometry>
        </mxCell>
        <mxCell id="DDUp1ZAEYIrsj0VK0MAX-45" value="Search Orders" style="ellipse;whiteSpace=wrap;html=1;" vertex="1" parent="3">
          <mxGeometry x="50" y="100" width="140" height="70" as="geometry" />
        </mxCell>
        <mxCell id="DDUp1ZAEYIrsj0VK0MAX-55" style="edgeStyle=orthogonalEdgeStyle;rounded=0;orthogonalLoop=1;jettySize=auto;html=1;exitX=0.5;exitY=1;exitDx=0;exitDy=0;entryX=0.5;entryY=0;entryDx=0;entryDy=0;" edge="1" parent="3" source="DDUp1ZAEYIrsj0VK0MAX-47" target="DDUp1ZAEYIrsj0VK0MAX-46">
          <mxGeometry relative="1" as="geometry" />
        </mxCell>
        <mxCell id="DDUp1ZAEYIrsj0VK0MAX-57" value="Extends" style="edgeLabel;html=1;align=center;verticalAlign=middle;resizable=0;points=[];" vertex="1" connectable="0" parent="DDUp1ZAEYIrsj0VK0MAX-55">
          <mxGeometry x="-0.0917" y="-1" relative="1" as="geometry">
            <mxPoint as="offset" />
          </mxGeometry>
        </mxCell>
        <mxCell id="DDUp1ZAEYIrsj0VK0MAX-47" value="Check Out Order" style="ellipse;whiteSpace=wrap;html=1;" vertex="1" parent="3">
          <mxGeometry x="40" y="380" width="140" height="70" as="geometry" />
        </mxCell>
        <mxCell id="DDUp1ZAEYIrsj0VK0MAX-46" value="Send Email Confirmation" style="ellipse;whiteSpace=wrap;html=1;" vertex="1" parent="3">
          <mxGeometry x="230" y="500" width="140" height="70" as="geometry" />
        </mxCell>
        <mxCell id="DDUp1ZAEYIrsj0VK0MAX-48" value="Create Invoice" style="ellipse;whiteSpace=wrap;html=1;" vertex="1" parent="3">
          <mxGeometry x="350" y="350" width="140" height="70" as="geometry" />
        </mxCell>
        <mxCell id="DDUp1ZAEYIrsj0VK0MAX-54" style="edgeStyle=orthogonalEdgeStyle;rounded=0;orthogonalLoop=1;jettySize=auto;html=1;exitX=1;exitY=0.5;exitDx=0;exitDy=0;entryX=-0.007;entryY=0.614;entryDx=0;entryDy=0;entryPerimeter=0;" edge="1" parent="3" source="DDUp1ZAEYIrsj0VK0MAX-47" target="DDUp1ZAEYIrsj0VK0MAX-48">
          <mxGeometry relative="1" as="geometry" />
        </mxCell>
        <mxCell id="DDUp1ZAEYIrsj0VK0MAX-58" value="Extends" style="edgeLabel;html=1;align=center;verticalAlign=middle;resizable=0;points=[];" vertex="1" connectable="0" parent="DDUp1ZAEYIrsj0VK0MAX-54">
          <mxGeometry x="0.1185" y="1" relative="1" as="geometry">
            <mxPoint as="offset" />
          </mxGeometry>
        </mxCell>
        <mxCell id="DDUp1ZAEYIrsj0VK0MAX-59" value="Payment gateway" style="ellipse;whiteSpace=wrap;html=1;" vertex="1" parent="3">
          <mxGeometry x="160" y="220" width="140" height="70" as="geometry" />
        </mxCell>
        <mxCell id="DDUp1ZAEYIrsj0VK0MAX-60" value="Use" style="endArrow=open;endSize=12;dashed=1;html=1;rounded=0;exitX=0.664;exitY=0.043;exitDx=0;exitDy=0;exitPerimeter=0;" edge="1" parent="3" source="DDUp1ZAEYIrsj0VK0MAX-47" target="DDUp1ZAEYIrsj0VK0MAX-59">
          <mxGeometry width="160" relative="1" as="geometry">
            <mxPoint x="90" y="310" as="sourcePoint" />
            <mxPoint x="250" y="310" as="targetPoint" />
          </mxGeometry>
        </mxCell>
        <mxCell id="DDUp1ZAEYIrsj0VK0MAX-61" value="return" style="html=1;verticalAlign=bottom;endArrow=open;dashed=1;endSize=8;curved=0;rounded=0;exitX=0;exitY=1;exitDx=0;exitDy=0;entryX=0.5;entryY=0;entryDx=0;entryDy=0;" edge="1" parent="3" source="DDUp1ZAEYIrsj0VK0MAX-59" target="DDUp1ZAEYIrsj0VK0MAX-47">
          <mxGeometry relative="1" as="geometry">
            <mxPoint x="210" y="310" as="sourcePoint" />
            <mxPoint x="130" y="310" as="targetPoint" />
          </mxGeometry>
        </mxCell>
        <mxCell id="DDUp1ZAEYIrsj0VK0MAX-44" value="&lt;span style=&quot;font-weight: 700;&quot;&gt;Art Director&lt;/span&gt;" style="shape=umlActor;verticalLabelPosition=bottom;verticalAlign=top;html=1;" vertex="1" parent="1">
          <mxGeometry x="990" y="340" width="30" height="60" as="geometry" />
        </mxCell>
        <mxCell id="DDUp1ZAEYIrsj0VK0MAX-50" style="edgeStyle=orthogonalEdgeStyle;rounded=0;orthogonalLoop=1;jettySize=auto;html=1;exitX=0.5;exitY=0.5;exitDx=0;exitDy=0;exitPerimeter=0;" edge="1" parent="1" source="DDUp1ZAEYIrsj0VK0MAX-43" target="DDUp1ZAEYIrsj0VK0MAX-47">
          <mxGeometry relative="1" as="geometry">
            <Array as="points">
              <mxPoint x="400" y="350" />
            </Array>
          </mxGeometry>
        </mxCell>
        <mxCell id="DDUp1ZAEYIrsj0VK0MAX-43" value="&lt;span style=&quot;font-weight: 700; text-wrap-mode: wrap;&quot;&gt;Customer&lt;/span&gt;" style="shape=umlActor;verticalLabelPosition=bottom;verticalAlign=top;html=1;" vertex="1" parent="1">
          <mxGeometry x="90" y="320" width="30" height="60" as="geometry" />
        </mxCell>
        <mxCell id="DDUp1ZAEYIrsj0VK0MAX-52" style="edgeStyle=orthogonalEdgeStyle;rounded=0;orthogonalLoop=1;jettySize=auto;html=1;exitX=0.5;exitY=0.5;exitDx=0;exitDy=0;exitPerimeter=0;" edge="1" parent="1" source="DDUp1ZAEYIrsj0VK0MAX-43" target="DDUp1ZAEYIrsj0VK0MAX-45">
          <mxGeometry relative="1" as="geometry">
            <mxPoint x="115" y="360" as="sourcePoint" />
            <mxPoint x="430" y="393" as="targetPoint" />
            <Array as="points">
              <mxPoint x="105" y="280" />
              <mxPoint x="430" y="280" />
            </Array>
          </mxGeometry>
        </mxCell>
        <mxCell id="DDUp1ZAEYIrsj0VK0MAX-53" style="edgeStyle=orthogonalEdgeStyle;rounded=0;orthogonalLoop=1;jettySize=auto;html=1;exitX=0.5;exitY=0.5;exitDx=0;exitDy=0;exitPerimeter=0;entryX=1;entryY=0.714;entryDx=0;entryDy=0;entryPerimeter=0;" edge="1" parent="1" source="DDUp1ZAEYIrsj0VK0MAX-44" target="DDUp1ZAEYIrsj0VK0MAX-45">
          <mxGeometry relative="1" as="geometry" />
        </mxCell>
      </root>
    </mxGraphModel>
  </diagram>
</mxfile>
